/* XPM */
static char *result[] = {
/* columns rows colors chars-per-pixel */
"32 32 92 1 ",
"  c black",
". c #011C28",
"X c #353535",
"o c #3F3F3F",
"O c #403B36",
"+ c #006A8F",
"@ c #0F698D",
"# c #106E93",
"$ c #336F8E",
"% c #1B99CB",
"& c #2A9CCD",
"* c #1DA1D5",
"= c #00ACE6",
"- c #00ADE6",
"; c #00ADE7",
": c #02ADE6",
"> c #09ADE6",
", c #0AADE6",
"< c #0BADE6",
"1 c #0DADE6",
"2 c #0EADE6",
"3 c #0FADE6",
"4 c #10ADE6",
"5 c #18AEE6",
"6 c #1AAEE6",
"7 c #1BAEE6",
"8 c #1CAEE6",
"9 c #1EAEE6",
"0 c #1FAEE6",
"q c #20AEE6",
"w c #20AEE7",
"e c #20AFE7",
"r c #2CAFE6",
"t c #36B0E6",
"y c #3DB1E6",
"u c #41B1E6",
"i c #4DB3E5",
"p c #4EB3E5",
"a c #4FB3E5",
"s c #57B4E5",
"d c #57B5E6",
"f c #64B7E5",
"g c #66B7E5",
"h c #67B7E5",
"j c #6BB8E5",
"k c #75BBE4",
"l c #77BBE4",
"z c #7ABCE4",
"x c #7FBDE4",
"c c #898887",
"v c #83878A",
"b c gray55",
"n c gray58",
"m c #AEAEAE",
"M c #81BDE4",
"N c #82BEE4",
"B c #85BEE4",
"V c #87BFE4",
"C c #9BC5E3",
"Z c #ACCBE2",
"A c #B3CDE1",
"S c #B9CFE1",
"D c #BCD0E1",
"F c #CDCDCD",
"G c #CECECE",
"H c #CDD7DF",
"J c #CFD8DF",
"K c LightGray",
"L c #D1D9DF",
"P c #D4DADF",
"I c #D5DADF",
"U c #D7DBDF",
"Y c gray87",
"T c #DFDEDE",
"R c #DFDFDE",
"E c #DFDFDF",
"W c #E0DFDE",
"Q c #E1DFDE",
"! c #E1E0DF",
"~ c #E2E0DE",
"^ c #C5D4E0",
"/ c #C6D4E0",
"( c #C7D4E0",
") c #C8D5E0",
"_ c #C9D5E0",
"` c #CAD6E0",
"' c #D4DAE0",
"] c gray88",
"[ c #E1E0E0",
"{ c #E2E1E0",
"} c #E3E1E0",
"| c None",
/* pixels */
"||||||||||||||||||||||||||||||||",
"||||||||||||||||||||||||||||||||",
"||||||||||||||||||||||||||||||||",
"||||||||||||||||||||||||||||||||",
"|||||||||||||qqqqqqq||||||||||||",
"|||||||||qqqqqqqqqqqqqq|||||||||",
"|||||||||qqqqqqqqqqqqqq|||||||||",
"|||||||qqqqqqqqqqqqqqqqqq|||||||",
"|||||||qqqaNMNtqqqqq6kMMx|||||||",
"||||||qqqqVWRQsqqqqq:`RRP-q|||||",
"||||||qq8fCTYWxjyqqrhHYYIgj|||||",
"||||||qq-LRYY][}zqqp~YYE]{{|||||",
"||||||qq-JYYGXoO&qqiWYEnooo|||||",
"||||||qq-JYYF   %qqiWYEb   |||||",
"||||qqqq-JYYF   %qqiWYEb  .w||||",
"||||qqqq3Z^YKc$@*qquSUEmv+#q||||",
"||||qqqqq5BRY!deqqq0=_YE';eq||||",
"||||qqqqqql(/)pqqqqq1A//D<qq||||",
"||||qqqqqq7>,>9qqqqqq4,,2qqq||||",
"||||qqqqqqqqqqqqqqqqqqqqqqqq||||",
"||||qqqqqqqqqqqqqqqqqqqqqqqq||||",
"||||qqqqqqqqqqqqqqqqqqqqqqqq||||",
"||||qqqqqqqqqqqqqqqqqqqqqqqq||||",
"||||qqqqqqqqqqqqqqqqqqqqqqqq||||",
"||||qqqqqqqqqqqqqqqqqqqqqqqq||||",
"||||qq|||qqqqq||||qqqqq|||qq||||",
"||||q||||||qqq||||qqq||||||q||||",
"||||q||||||qqq||||qqq||||||q||||",
"||||||||||||||||||||||||||||||||",
"||||||||||||||||||||||||||||||||",
"||||||||||||||||||||||||||||||||",
"||||||||||||||||||||||||||||||||"
};
