/* XPM */
static char *result[] = {
/* columns rows colors chars-per-pixel */
"32 32 67 1 ",
"  c black",
". c #001019",
"X c #011019",
"o c #161717",
"O c #00293A",
"+ c #032A3A",
"@ c #363738",
"# c gray49",
"$ c #07ACE5",
"% c #07ADE6",
"& c #08ADE6",
"* c #09ADE6",
"= c #08AEE7",
"- c #0EADE6",
"; c #0FADE6",
": c #19AEE6",
"> c #1AAEE6",
", c #1EAEE6",
"< c #1FAEE6",
"1 c #20ADE5",
"2 c #20AEE6",
"3 c #21AEE6",
"4 c #20AFE7",
"5 c #22AEE6",
"6 c #27AEE6",
"7 c #30AFE6",
"8 c #31AFE6",
"9 c #3AB0E6",
"0 c #3BB0E6",
"q c #3CB0E6",
"w c #3DB0E6",
"e c #40B1E6",
"r c #42B1E6",
"t c #46B2E5",
"y c #51B3E5",
"u c #57B4E5",
"i c #63B6E5",
"p c #65B7E5",
"a c #939393",
"s c #989898",
"d c gray60",
"f c #9D9D9D",
"g c gray69",
"h c #B9B9B9",
"j c #8DC1E3",
"k c #92C2E3",
"l c #93C2E3",
"z c #B1CCE1",
"x c #B3CDE1",
"c c #D2D9DF",
"v c #D7DBDE",
"b c #D7DBDF",
"n c #D9DCDE",
"m c #DBDDDE",
"M c #DDDEDE",
"N c gray87",
"B c #DFDEDE",
"V c #DFDFDE",
"C c #DFDFDF",
"Z c #E0DFDE",
"A c #C0D2E0",
"S c #C1D2E0",
"D c #C4D3E0",
"F c #C4D4E0",
"G c #C6D4E0",
"H c #D8DCE0",
"J c None",
/* pixels */
"JJJJJJJJJJJJJJJJJJJJJJJJJJJJJJJJ",
"JJJJJJJJJJJJJJJJJJJJJJJJJJJJJJJJ",
"JJJJJJJJJJJJJJJJJJJJJJJJJJJJJJJJ",
"JJJJJJJJJJJJJJJJJJJJJJJJJJJJJJJJ",
"JJJJJJJJJJJJJ2222222JJJJJJJJJJJJ",
"JJJJJJJJJ   X1222224+   JJJJJJJJ",
"JJJJJJJJJ   .$:222%=O   JJJJJJJJ",
"JJJJJJJNCa  ovj227bH@  #CJJJJJJJ",
"JJJJJJJcNhssdNk228NCfssgCJJJJJJJ",
"JJJJJJ*DNNCCCBk228NNNCCNB92JJJJJ",
"JJJJJJ&FNNNNNBk228NNNNNNB92JJJJJ",
"JJJJJJ&GVBNNNZl228VVNNNNZ02JJJJJ",
"JJJJJJ<qexNNMt7223rwnNNSw52JJJJJ",
"JJJJJJ22>zZZB622222;mZZA-22JJJJJ",
"JJJJ2222<yppp322222,ippu,2222JJJ",
"JJJJ2222222222222222222222222JJJ",
"JJJJ2222222222222222222222222JJJ",
"JJJJ2222222222222222222222222JJJ",
"JJJJ2222222222222222222222222JJJ",
"JJJJ2222222222222222222222222JJJ",
"JJJJ2222222222222222222222222JJJ",
"JJJJ2222222222222222222222222JJJ",
"JJJJ2222222222222222222222222JJJ",
"JJJJ2222222222222222222222222JJJ",
"JJJJ2222222222222222222222222JJJ",
"JJJJ2222222J22222222JJ2222222JJJ",
"JJJJJJ222JJJJJ2222JJJJJJ222JJJJJ",
"JJJJJJ222JJJJJ2222JJJJJJ22JJJJJJ",
"JJJJJJJJJJJJJJJJJJJJJJJJJJJJJJJJ",
"JJJJJJJJJJJJJJJJJJJJJJJJJJJJJJJJ",
"JJJJJJJJJJJJJJJJJJJJJJJJJJJJJJJJ",
"JJJJJJJJJJJJJJJJJJJJJJJJJJJJJJJJ"
};
