/* XPM */
static char *result[] = {
/* columns rows colors chars-per-pixel */
"32 32 67 1 ",
"  c black",
". c #232323",
"X c #064259",
"o c #1D4559",
"O c #515150",
"+ c #555555",
"@ c #606060",
"# c #00ACE6",
"$ c #00ADE6",
"% c #01ADE6",
"& c #02ADE6",
"* c #04ADE6",
"= c #09ADE6",
"- c #0BADE6",
"; c #0DADE6",
": c #0FADE6",
"> c #1FAAE0",
", c #18AEE6",
"< c #19AEE6",
"1 c #1AAEE6",
"2 c #1DAEE6",
"3 c #20ADE5",
"4 c #20AEE6",
"5 c #20AEE7",
"6 c #2DAFE6",
"7 c #20B0E8",
"8 c #37B0E6",
"9 c #40B1E6",
"0 c #54B0E0",
"q c #57B4E5",
"w c #58B6E7",
"e c #5CB5E5",
"r c #5EB5E5",
"t c #61B6E5",
"y c #62B6E5",
"u c #63B6E5",
"i c #64B7E5",
"p c gray67",
"a c #99C4E3",
"s c gray80",
"d c gray81",
"f c #CBD6DF",
"g c #CCD6DF",
"h c #CED7DF",
"j c gray84",
"k c #D1D8DF",
"l c #D1D9DF",
"z c #D2D9DF",
"x c #D3D9DF",
"c c #D7DBDF",
"v c #DBD9D8",
"b c #D8DBDF",
"n c #D8DCDE",
"m c #D9DCDE",
"M c #DADCDE",
"N c #DBDDDE",
"B c #DDDDDD",
"V c #DCDDDE",
"C c gray87",
"Z c #DFDFDE",
"A c #E0DFDE",
"S c #E2E0DE",
"D c #C9D5E0",
"F c #CBD6E0",
"G c gray88",
"H c #E4E2E0",
"J c None",
/* pixels */
"JJJJJJJJJJJJJJJJJJJJJJJJJJJJJJJJ",
"JJJJJJJJJJJJJJJJJJJJJJJJJJJJJJJJ",
"JJJJJJJJJJJJJJJJJJJJJJJJJJJJJJJJ",
"JJJJJJJJJJJJJ4444444JJJJJJJJJJJJ",
"JJJJJJJJJJJJJ5444443JJJJJJJJJJJJ",
"JJJJJJJJJ   X744444>   JJJJJJJJJ",
"JJJJJJJJJ.  ow6446q0   +JJJJJJJJ",
"JJJJJJJCG@  OHy44iSv   pCJJJJJJJ",
"JJJJJJ*mCdssdAt44uABsssjn%4JJJJJ",
"JJJJJJ-bCCCCCAt44uACCCCCc=4JJJJJ",
"JJJJJJ-bCCCCCAt44uACCCCCc=4JJJJJ",
"JJJJJJ:flVCCVxe44rxzCCCcF;4JJJJJ",
"JJJJJJ4&#gCCk#2442$8ZCCa%44JJJJJ",
"JJJJJJ44&DMMh$444449VMNa444JJJJJ",
"JJJJ444441,,<4444444,,,24444JJJJ",
"JJJJ444444444444444444444444JJJJ",
"JJJJ444444444444444444444444JJJJ",
"JJJJ444444444444444444444444JJJJ",
"JJJJ444444444444444444444444JJJJ",
"JJJJ444444444444444444444444JJJJ",
"JJJJ444444444444444444444444JJJJ",
"JJJJ444444444444444444444444JJJJ",
"JJJJ444444444444444444444444JJJJ",
"JJJJ444444444444444444444444JJJJ",
"JJJJ444444444444444444444444JJJJ",
"JJJJ44JJJ44444JJJJ44444JJJ44JJJJ",
"JJJJ4JJJJJJ444JJJJ444JJJJJJ4JJJJ",
"JJJJ4JJJJJJ444JJJJ444JJJJJJ4JJJJ",
"JJJJJJJJJJJJJJJJJJJJJJJJJJJJJJJJ",
"JJJJJJJJJJJJJJJJJJJJJJJJJJJJJJJJ",
"JJJJJJJJJJJJJJJJJJJJJJJJJJJJJJJJ",
"JJJJJJJJJJJJJJJJJJJJJJJJJJJJJJJJ"
};
