/* XPM */
static char *result[] = {
/* columns rows colors chars-per-pixel */
"32 32 53 1 ",
"  c #001429",
". c #031434",
"X c #05143C",
"o c #00183F",
"O c #061441",
"+ c #011841",
"@ c #03184C",
"# c #051753",
"$ c #031A53",
"% c #061858",
"& c #09185E",
"* c #0A1863",
"= c #0D1769",
"- c #0D186C",
"; c #0F1871",
": c #101875",
"> c #13187C",
", c #161884",
"< c #19178C",
"1 c #17188A",
"2 c #18188C",
"3 c #013A92",
"4 c #053A9B",
"5 c #073BA2",
"6 c #0B3AA4",
"7 c #0D3AA8",
"8 c #113AAD",
"9 c #1439B3",
"0 c #173AB9",
"q c #1B39BE",
"w c #1F3AC4",
"e c #233ACB",
"r c #263AD0",
"t c #2B3AD5",
"y c #2E3AD9",
"u c #333ADE",
"i c #363AE1",
"p c #1468C6",
"a c #4FC5F0",
"s c #51C5F1",
"d c #5BC6F4",
"f c #54C8F1",
"g c #62C6F6",
"h c #66C6F9",
"j c #6CC6FA",
"k c #75C6FB",
"l c #7BC6FD",
"z c #67D5F4",
"x c #6AD6F6",
"c c #6EDAF6",
"v c #70DCF5",
"b c #81C6FD",
"n c None",
/* pixels */
"nxddghhjlbbljhhgddsssssasssssazn",
"xp579qetuiuuteq974433333333333px",
"f4$$&=:>111,,:=&%@++++ooo++++$4d",
"f3o  .XXOOO.X...             @6d",
"f3+                          %7d",
"f3+                         .*0g",
"f3+                         .;wh",
"f3+                         X>rj",
"f3o                         X,yk",
"f3o                         O<ul",
"f3o                         O<ib",
"f3+                         O<ul",
"d3+                         X,yk",
"d4@                         X>rj",
"g5@                         .;wh",
"g8%.                        .*0g",
"h9*.                         #8d",
"je;.                         O4d",
"je>.                         @4d",
"ku>.                         +3d",
"lu<O                         +3f",
"bu<O                         +3f",
"bu<O                         +3f",
"ky1X                         +3f",
"jr>X                         +3f",
"he;.                         o3f",
"g9*.                         o3f",
"d8%                          o3f",
"d5@              ..XXOOXX..  +3f",
"d4$oooo+o+++++@%*-:,22<2,:-&$$4f",
"cp333333333334479qetuiuuteq885pc",
"nxaaaaafaaasasdddhhjlbbljhggdfcn"
};
